# xmcd
#
# Track frame offsets: 
#        150
#        11469
#        24453
#        35150
#        49059
#        61942
#        72966
#        83171
#        95095
#        106929
#        121486
#        132815
#        146136
#        159982
#        171486
#        185639
#        199070
#        209048
#        219057
#        230385
#
# Disc length: 3372 seconds
#
# Revision: 1
# Processed by: cddbd v1.5.2PL0 Copyright (c) Steve Scherf et al.
# Submitted via: ExactAudioCopy v1.2
#
DISCID=220d2a14
DTITLE=Various Artist - A Stack Of Blues
DYEAR=2016
DGENRE=Blues
TTITLE0=Albert King - I Got Evil
TTITLE1=Earl Hoo - Tanya
TTITLE2=Lightnin’ Hopkins - Last Affair
TTITLE3=Howlin' Wolf - Smokestack Lightnin'
TTITLE4=Muddy Waters - Hoochie Coochie Man
TTITLE5=Eddie 'Blues Man' Kirkland - Saturday Night Stomp
TTITLE6=John Lee Hooker - Want Ad Blues
TTITLE7=Otis Rush - All Your Love (I Miss Loving)
TTITLE8=Freddy King - San-Ho-Zay
TTITLE9=Johnny Guitar Watson - Cuttin' In
TTITLE10=Jimmy McCracklin - Later On
TTITLE11=Smokey Hogg - Shake A Leg
TTITLE12=Jimmy Reed - Take It Slow
TTITLE13=Little Walter - My Babe
TTITLE14=Junior Wells - I Could Cry
TTITLE15=Lonesome Sundown - Leave My Money Alone
TTITLE16=Elmore James - Mean And Evil
TTITLE17=Buddy Guy - First Time I Met The Blues
TTITLE18=Earl Gaines - Can't Keep From Cryin'
TTITLE19=B.B. King - Everyday I Have The Blues
EXTD=YEAR: 2016
EXTT0=
EXTT1=
EXTT2=
EXTT3=
EXTT4=
EXTT5=
EXTT6=
EXTT7=
EXTT8=
EXTT9=
EXTT10=
EXTT11=
EXTT12=
EXTT13=
EXTT14=
EXTT15=
EXTT16=
EXTT17=
EXTT18=
EXTT19=
PLAYORDER=
